<mxfile host="app.diagrams.net" agent="Mozilla/5.0 (Windows NT 10.0; Win64; x64; rv:130.0) Gecko/20100101 Firefox/130.0" version="24.7.12">
  <diagram id="a19_NUknvXgKUSfnAKbw" name="Page-1">
    <mxGraphModel dx="1185" dy="637" grid="1" gridSize="10" guides="1" tooltips="1" connect="1" arrows="1" fold="1" page="1" pageScale="1" pageWidth="827" pageHeight="1169" background="#ffffff" math="0" shadow="0">
      <root>
        <mxCell id="0" />
        <mxCell id="1" parent="0" />
        <mxCell id="OqPCese3OTZqkQ9JfMc0-1" style="edgeStyle=orthogonalEdgeStyle;rounded=0;orthogonalLoop=1;jettySize=auto;html=1;exitX=1;exitY=0.5;exitDx=0;exitDy=0;entryX=0;entryY=0.5;entryDx=0;entryDy=0;entryPerimeter=0;" edge="1" parent="1" source="OqPCese3OTZqkQ9JfMc0-2" target="OqPCese3OTZqkQ9JfMc0-12">
          <mxGeometry relative="1" as="geometry">
            <mxPoint x="460" y="205" as="targetPoint" />
            <Array as="points">
              <mxPoint x="450" y="205" />
            </Array>
          </mxGeometry>
        </mxCell>
        <mxCell id="OqPCese3OTZqkQ9JfMc0-2" value="" style="swimlane;startSize=0;align=center;labelBackgroundColor=#7EA6E0;labelBorderColor=none;fillColor=none;rounded=1;shadow=1;sketch=0;glass=1;swimlaneFillColor=#D4E1F5;" vertex="1" parent="1">
          <mxGeometry x="230" y="160" width="220" height="85" as="geometry">
            <mxRectangle x="350" y="300" width="50" height="40" as="alternateBounds" />
          </mxGeometry>
        </mxCell>
        <mxCell id="OqPCese3OTZqkQ9JfMc0-3" style="edgeStyle=orthogonalEdgeStyle;rounded=0;orthogonalLoop=1;jettySize=auto;html=1;exitX=0;exitY=0.5;exitDx=0;exitDy=0;entryX=1;entryY=0.5;entryDx=0;entryDy=0;" edge="1" parent="OqPCese3OTZqkQ9JfMc0-2" source="OqPCese3OTZqkQ9JfMc0-4" target="OqPCese3OTZqkQ9JfMc0-5">
          <mxGeometry relative="1" as="geometry" />
        </mxCell>
        <mxCell id="OqPCese3OTZqkQ9JfMc0-4" value="&lt;font style=&quot;font-size: 15px&quot;&gt;Evaluator&lt;/font&gt;" style="rounded=1;whiteSpace=wrap;html=1;align=center;shadow=1;glass=0;sketch=0;fillColor=#D4E1F5;" vertex="1" parent="OqPCese3OTZqkQ9JfMc0-2">
          <mxGeometry x="130" y="10" width="80" height="43.75" as="geometry" />
        </mxCell>
        <mxCell id="OqPCese3OTZqkQ9JfMc0-5" value="&lt;font style=&quot;font-size: 15px&quot;&gt;Generator&lt;/font&gt;" style="rounded=1;whiteSpace=wrap;html=1;align=center;shadow=1;glass=0;fillColor=#D4E1F5;" vertex="1" parent="OqPCese3OTZqkQ9JfMc0-2">
          <mxGeometry x="14" y="10" width="80" height="43.75" as="geometry" />
        </mxCell>
        <mxCell id="OqPCese3OTZqkQ9JfMc0-6" value="Law Breaking Fuzzing Engine" style="text;html=1;strokeColor=none;fillColor=none;align=center;verticalAlign=middle;whiteSpace=wrap;rounded=0;" vertex="1" parent="OqPCese3OTZqkQ9JfMc0-2">
          <mxGeometry y="53.75" width="170" height="30" as="geometry" />
        </mxCell>
        <mxCell id="OqPCese3OTZqkQ9JfMc0-7" style="edgeStyle=orthogonalEdgeStyle;rounded=0;orthogonalLoop=1;jettySize=auto;html=1;exitX=1;exitY=0.5;exitDx=0;exitDy=0;exitPerimeter=0;" edge="1" parent="1" source="OqPCese3OTZqkQ9JfMc0-8" target="OqPCese3OTZqkQ9JfMc0-14">
          <mxGeometry relative="1" as="geometry" />
        </mxCell>
        <mxCell id="OqPCese3OTZqkQ9JfMc0-8" value="Scenario Script" style="whiteSpace=wrap;html=1;shape=mxgraph.basic.document;shadow=1;fontSize=15;" vertex="1" parent="1">
          <mxGeometry x="50" y="146.25" width="70" height="60" as="geometry" />
        </mxCell>
        <mxCell id="OqPCese3OTZqkQ9JfMc0-9" style="edgeStyle=orthogonalEdgeStyle;rounded=0;orthogonalLoop=1;jettySize=auto;html=1;exitX=0.5;exitY=1;exitDx=0;exitDy=0;exitPerimeter=0;" edge="1" parent="1" source="OqPCese3OTZqkQ9JfMc0-8" target="OqPCese3OTZqkQ9JfMc0-8">
          <mxGeometry relative="1" as="geometry" />
        </mxCell>
        <mxCell id="OqPCese3OTZqkQ9JfMc0-10" style="edgeStyle=orthogonalEdgeStyle;rounded=0;orthogonalLoop=1;jettySize=auto;html=1;exitX=1;exitY=0.5;exitDx=0;exitDy=0;exitPerimeter=0;entryX=0;entryY=0.5;entryDx=0;entryDy=0;" edge="1" parent="1" source="OqPCese3OTZqkQ9JfMc0-11" target="OqPCese3OTZqkQ9JfMc0-16">
          <mxGeometry relative="1" as="geometry" />
        </mxCell>
        <mxCell id="OqPCese3OTZqkQ9JfMc0-11" value="Traffic laws" style="whiteSpace=wrap;html=1;shape=mxgraph.basic.document;shadow=1;fontSize=15;" vertex="1" parent="1">
          <mxGeometry x="50" y="245" width="70" height="60" as="geometry" />
        </mxCell>
        <mxCell id="OqPCese3OTZqkQ9JfMc0-12" value="&lt;div style=&quot;font-size: 14px&quot; align=&quot;justify&quot;&gt;&lt;font style=&quot;font-size: 14px&quot;&gt;Different Violations&amp;nbsp;&amp;nbsp; &lt;br&gt;&lt;/font&gt;&lt;/div&gt;&lt;div style=&quot;font-size: 14px&quot; align=&quot;justify&quot;&gt;&lt;font style=&quot;font-size: 14px&quot;&gt;of Traffic Law&lt;br&gt;&lt;/font&gt;&lt;/div&gt;" style="strokeWidth=2;html=1;shape=mxgraph.flowchart.multi-document;whiteSpace=wrap;align=center;shadow=1;sketch=0;" vertex="1" parent="1">
          <mxGeometry x="475" y="165" width="160" height="80" as="geometry" />
        </mxCell>
        <mxCell id="OqPCese3OTZqkQ9JfMc0-13" style="edgeStyle=orthogonalEdgeStyle;rounded=0;orthogonalLoop=1;jettySize=auto;html=1;exitX=0.25;exitY=0;exitDx=0;exitDy=0;entryX=0;entryY=0.5;entryDx=0;entryDy=0;" edge="1" parent="1" source="OqPCese3OTZqkQ9JfMc0-14" target="OqPCese3OTZqkQ9JfMc0-17">
          <mxGeometry relative="1" as="geometry" />
        </mxCell>
        <mxCell id="OqPCese3OTZqkQ9JfMc0-14" value="&lt;font style=&quot;font-size: 15px&quot;&gt;DSL Parser&lt;/font&gt;" style="rounded=1;whiteSpace=wrap;html=1;align=center;labelBackgroundColor=none;shadow=1;glass=0;fillColor=#D4E1F5;" vertex="1" parent="1">
          <mxGeometry x="150" y="152.5" width="60" height="47.5" as="geometry" />
        </mxCell>
        <mxCell id="OqPCese3OTZqkQ9JfMc0-15" style="edgeStyle=orthogonalEdgeStyle;rounded=0;orthogonalLoop=1;jettySize=auto;html=1;exitX=1.014;exitY=0.64;exitDx=0;exitDy=0;entryX=0.75;entryY=1;entryDx=0;entryDy=0;exitPerimeter=0;" edge="1" parent="1" source="OqPCese3OTZqkQ9JfMc0-16" target="OqPCese3OTZqkQ9JfMc0-4">
          <mxGeometry relative="1" as="geometry" />
        </mxCell>
        <mxCell id="OqPCese3OTZqkQ9JfMc0-16" value="&lt;font style=&quot;font-size: 15px&quot;&gt;Traffic Law Parser&lt;/font&gt;" style="rounded=1;whiteSpace=wrap;html=1;align=center;labelBackgroundColor=none;shadow=1;glass=0;fillColor=#D4E1F5;" vertex="1" parent="1">
          <mxGeometry x="150" y="240" width="60" height="70" as="geometry" />
        </mxCell>
        <mxCell id="OqPCese3OTZqkQ9JfMc0-17" value="&lt;font style=&quot;font-size: 15px&quot;&gt;Simulator&lt;/font&gt;" style="rounded=1;whiteSpace=wrap;html=1;align=center;shadow=1;glass=0;" vertex="1" parent="1">
          <mxGeometry x="200" y="40" width="110" height="50" as="geometry" />
        </mxCell>
        <mxCell id="OqPCese3OTZqkQ9JfMc0-18" value="" style="endArrow=classic;startArrow=classic;html=1;rounded=0;entryX=0;entryY=0.5;entryDx=0;entryDy=0;exitX=1;exitY=0.5;exitDx=0;exitDy=0;" edge="1" parent="1" source="OqPCese3OTZqkQ9JfMc0-17" target="OqPCese3OTZqkQ9JfMc0-22">
          <mxGeometry width="50" height="50" relative="1" as="geometry">
            <mxPoint x="390" y="110" as="sourcePoint" />
            <mxPoint x="440" y="60" as="targetPoint" />
          </mxGeometry>
        </mxCell>
        <mxCell id="OqPCese3OTZqkQ9JfMc0-19" value="Input Script" style="text;strokeColor=none;fillColor=none;align=left;verticalAlign=middle;spacingLeft=4;spacingRight=4;overflow=hidden;points=[[0,0.5],[1,0.5]];portConstraint=eastwest;rotatable=0;fontSize=15;" vertex="1" parent="1">
          <mxGeometry x="40" y="110" width="90" height="30" as="geometry" />
        </mxCell>
        <mxCell id="OqPCese3OTZqkQ9JfMc0-20" value="Output" style="text;strokeColor=none;fillColor=none;align=left;verticalAlign=middle;spacingLeft=4;spacingRight=4;overflow=hidden;points=[[0,0.5],[1,0.5]];portConstraint=eastwest;rotatable=0;strokeWidth=1;fontSize=15;" vertex="1" parent="1">
          <mxGeometry x="520" y="130" width="80" height="30" as="geometry" />
        </mxCell>
        <mxCell id="OqPCese3OTZqkQ9JfMc0-21" style="edgeStyle=orthogonalEdgeStyle;rounded=0;orthogonalLoop=1;jettySize=auto;html=1;exitX=0.5;exitY=1;exitDx=0;exitDy=0;entryX=0.5;entryY=0;entryDx=0;entryDy=0;" edge="1" parent="1" source="OqPCese3OTZqkQ9JfMc0-22" target="OqPCese3OTZqkQ9JfMc0-4">
          <mxGeometry relative="1" as="geometry">
            <mxPoint x="400" y="161.25" as="targetPoint" />
          </mxGeometry>
        </mxCell>
        <mxCell id="OqPCese3OTZqkQ9JfMc0-22" value="&lt;font style=&quot;font-size: 15px&quot;&gt;ADS&lt;/font&gt;" style="rounded=1;whiteSpace=wrap;html=1;align=center;shadow=1;glass=0;" vertex="1" parent="1">
          <mxGeometry x="360" y="40" width="80" height="50" as="geometry" />
        </mxCell>
        <UserObject label="Initial test case" placeholders="1" name="Variable" id="OqPCese3OTZqkQ9JfMc0-23">
          <mxCell style="text;html=1;strokeColor=none;fillColor=none;align=center;verticalAlign=middle;whiteSpace=wrap;overflow=hidden;rotation=270;fontSize=15;" vertex="1" parent="1">
            <mxGeometry x="90" y="90" width="110" height="20" as="geometry" />
          </mxCell>
        </UserObject>
        <mxCell id="OqPCese3OTZqkQ9JfMc0-24" value="Trace" style="text;html=1;strokeColor=none;fillColor=none;align=center;verticalAlign=middle;whiteSpace=wrap;rounded=0;rotation=90;fontSize=15;" vertex="1" parent="1">
          <mxGeometry x="390" y="105" width="60" height="30" as="geometry" />
        </mxCell>
        <mxCell id="OqPCese3OTZqkQ9JfMc0-25" style="edgeStyle=orthogonalEdgeStyle;rounded=0;orthogonalLoop=1;jettySize=auto;html=1;exitX=0.5;exitY=0;exitDx=0;exitDy=0;entryX=0.5;entryY=1;entryDx=0;entryDy=0;" edge="1" parent="1" source="OqPCese3OTZqkQ9JfMc0-5" target="OqPCese3OTZqkQ9JfMc0-17">
          <mxGeometry relative="1" as="geometry" />
        </mxCell>
        <UserObject label="New test cases" placeholders="1" name="Variable" id="OqPCese3OTZqkQ9JfMc0-26">
          <mxCell style="text;html=1;strokeColor=none;fillColor=none;align=center;verticalAlign=middle;whiteSpace=wrap;overflow=hidden;rotation=0;fontSize=15;" vertex="1" parent="1">
            <mxGeometry x="260" y="105" width="110" height="20" as="geometry" />
          </mxCell>
        </UserObject>
        <mxCell id="OqPCese3OTZqkQ9JfMc0-27" value="Sub-Violations of Traffic Rule" style="text;html=1;strokeColor=none;fillColor=none;align=center;verticalAlign=middle;whiteSpace=wrap;rounded=0;labelBackgroundColor=none;labelBorderColor=none;fontSize=15;" vertex="1" parent="1">
          <mxGeometry x="215" y="250" width="200" height="30" as="geometry" />
        </mxCell>
      </root>
    </mxGraphModel>
  </diagram>
</mxfile>
